<svg xmlns="http://www.w3.org/2000/svg" version="1.1" xmlns:xlink="http://www.w3.org/1999/xlink" xmlns:svgjs="http://svgjs.dev/svgjs" width="2000" height="337" viewBox="0 0 2000 337"><g transform="matrix(1,0,0,1,-7.1759337713905325,0.6125415154872655)"><svg viewBox="0 0 397 67" data-background-color="#ffffff" preserveAspectRatio="xMidYMid meet" height="337" width="2000" xmlns="http://www.w3.org/2000/svg" xmlns:xlink="http://www.w3.org/1999/xlink"><g id="tight-bounds" transform="matrix(1,0,0,1,1.4244228536210244,-0.11232524980744074)"><svg viewBox="0 0 395.52 67.22465049961487" height="67.22465049961487" width="395.52"><g><svg viewBox="0 0 480.5422518346784 81.67547767466668" height="67.22465049961487" width="395.52"><g transform="matrix(1,0,0,1,85.02225183467837,4.8014721706666705)"><svg viewBox="0 0 395.52 72.07253333333334" height="72.07253333333334" width="395.52"><g id="textblocktransform"><svg viewBox="0 0 395.52 72.07253333333334" height="72.07253333333334" width="395.52" id="textblock"><g><svg viewBox="0 0 395.52 72.07253333333334" height="72.07253333333334" width="395.52"><g transform="matrix(1,0,0,1,0,0)"><svg width="395.52" viewBox="1.75 -45.15 281.22 51.25" height="72.07253333333334" data-palette-color="#333355"><path d="M1.75 0L1.75-36.6 10.3-36.6 10.3-32.35Q10.9-34.7 12.35-35.85 13.8-37 16.45-37L16.45-37Q18.6-37 20.18-36.02 21.75-35.05 22.4-33.35L22.4-33.35Q23.5-35.25 24.85-36.13 26.2-37 28.6-37L28.6-37Q32.9-37 34.58-34.38 36.25-31.75 36.25-26.75L36.25-26.75 36.15 0 27.35 0 27.35-26.9Q27.35-30.45 25.55-30.45L25.55-30.45Q24.3-30.45 23.75-29.23 23.2-28 23.2-26.3L23.2-26.3 23.2 0 14.45 0 14.45-26.9Q14.45-28.45 14.13-29.4 13.8-30.35 12.75-30.35L12.75-30.35Q11.4-30.35 10.85-29.03 10.3-27.7 10.3-25.85L10.3-25.85 10.3 0 1.75 0ZM38.95 6.1L38.95 0.55 43.15 0.55Q44.05 0.55 44.05-0.2L44.05-0.2Q44.05-0.55 44-0.75L44-0.75 38.3-36.6 46.65-36.6 48.3-18.75 49.1-9.65 50.05-18.75 52-36.6 60.4-36.6 53.6 1.9Q53.25 4.05 52.17 5.08 51.1 6.1 48.8 6.1L48.8 6.1 38.95 6.1ZM81.59 0.4Q78.39 0.4 76.77-1.13 75.14-2.65 74.62-5.18 74.09-7.7 74.09-11.65L74.09-11.65 74.19-28.15Q74.19-32.05 76.17-34.52 78.14-37 81.74-37L81.74-37Q85.29-37 87.04-34.65L87.04-34.65 87.04-43.2 95.79-43.2 95.79 0 87.04 0 87.04-3.9Q86.29-1.75 85.02-0.68 83.74 0.4 81.59 0.4L81.59 0.4ZM84.94-6.45Q86.24-6.45 86.64-7.73 87.04-9 87.04-11.15L87.04-11.15 87.04-12.7 87.04-26.45Q87.04-28.05 86.59-29.15 86.14-30.25 84.99-30.25L84.99-30.25Q83.69-30.25 83.27-29.23 82.84-28.2 82.84-26.45L82.84-26.45 82.84-11.05Q82.84-6.45 84.94-6.45L84.94-6.45ZM105.94 0.4Q101.69 0.4 100.12-2.43 98.54-5.25 98.54-10.5L98.54-10.5Q98.54-14.8 99.67-17.1 100.79-19.4 102.79-20.48 104.79-21.55 108.89-22.85L108.89-22.85 111.29-23.65 111.29-23.75 111.29-27.4Q111.29-28.85 110.72-29.63 110.14-30.4 109.34-30.4L109.34-30.4Q108.64-30.4 108.12-29.75 107.59-29.1 107.59-28L107.59-28 107.59-25.8 99.09-25.8 99.09-27Q99.09-32.4 101.62-34.7 104.14-37 109.84-37L109.84-37Q114.39-37 117.24-34.63 120.09-32.25 120.09-27.9L120.09-27.9 120.09 0 111.39 0 111.39-4.35Q110.74-2.1 109.32-0.85 107.89 0.4 105.94 0.4L105.94 0.4ZM109.39-6.4Q110.39-6.4 110.82-7.23 111.24-8.05 111.24-9.25L111.24-9.25 111.24-19.45Q109.29-18.7 108.37-17.55 107.44-16.4 107.44-14.35L107.44-14.35 107.44-9.65Q107.44-6.4 109.39-6.4L109.39-6.4ZM132.14-39.05L123.39-39.05 123.39-45.15 132.14-45.15 132.14-39.05ZM132.14 0L123.39 0 123.39-36.6 132.14-36.6 132.14 0ZM144.49 0L135.59 0 135.59-43.2 144.49-43.2 144.49 0ZM147.28 6.1L147.28 0.55 151.48 0.55Q152.38 0.55 152.38-0.2L152.38-0.2Q152.38-0.55 152.33-0.75L152.33-0.75 146.63-36.6 154.98-36.6 156.63-18.75 157.43-9.65 158.38-18.75 160.33-36.6 168.73-36.6 161.93 1.9Q161.58 4.05 160.51 5.08 159.43 6.1 157.13 6.1L157.13 6.1 147.28 6.1ZM196.28 0L186.58 0 182.13-36.6 189.63-36.6 192.08-16.95 194.18-36.6 201.83-36.6 204.33-16.95 206.38-36.6 214.63-36.6 209.93 0 201.18 0 198.58-20.8 196.28 0ZM228.18 0.4Q217.23 0.4 217.23-10.95L217.23-10.95 217.23-25.65Q217.23-30.85 220.15-33.93 223.08-37 228.18-37L228.18-37Q233.28-37 236.2-33.93 239.13-30.85 239.13-25.65L239.13-25.65 239.13-10.95Q239.13 0.4 228.18 0.4L228.18 0.4ZM228.18-6.35Q229.23-6.35 229.73-7.1 230.23-7.85 230.23-9.15L230.23-9.15 230.23-27.05Q230.23-30.25 228.18-30.25L228.18-30.25Q226.13-30.25 226.13-27.05L226.13-27.05 226.13-9.15Q226.13-7.85 226.63-7.1 227.13-6.35 228.18-6.35L228.18-6.35ZM242.37 0L242.37-36.6 251.12-36.6 251.12-32.55Q251.77-34.7 253.4-35.88 255.02-37.05 257.42-37.05L257.42-37.05 257.42-29.75Q255.57-29.75 253.35-29.23 251.12-28.7 251.12-28L251.12-28 251.12 0 242.37 0ZM268.22 0L259.57 0 259.57-43.2 268.22-43.2 268.22-24 272.42-36.6 281.47-36.6 275.97-20.7 282.97 0 273.67 0 268.22-17.25 268.22 0Z" opacity="1" transform="matrix(1,0,0,1,0,0)" fill="#333355" class="wordmark-text-0" data-fill-palette-color="primary" id="text-0"></path></svg></g></svg></g></svg></g></svg></g><g><svg viewBox="0 0 68.00765645547837 81.67547767466668" height="81.67547767466668" width="68.00765645547837"><g><svg xmlns="http://www.w3.org/2000/svg" xmlns:xlink="http://www.w3.org/1999/xlink" version="1.1" x="0" y="0" viewBox="12.657 5.151999999999999 74.6860003406216 89.696" enable-background="new 0 0 100 100" xml:space="preserve" height="81.67547767466668" width="68.00765645547837" class="icon-icon-0" data-fill-palette-color="accent" id="icon-0"><g fill="#99a28e" data-fill-palette-color="accent"><path fill="#99a28e" d="M85.844 47.557H67.774A54 54 0 0 0 67.432 45.911H77.618C82.438 45.911 82.438 39.528 77.618 39.528H69.08L60.053 25.53C58.035 22.426 54.612 22.234 54.612 22.234H53.176C52.551 22.522 51.891 22.748 51.205 22.904 51.17 22.912 51.133 22.918 51.098 22.925 50.82 22.985 50.537 23.031 50.252 23.068 50.17 23.078 50.088 23.089 50.006 23.097 49.68 23.13 49.35 23.152 49.016 23.152S48.356 23.13 48.032 23.097C47.935 23.087 47.84 23.074 47.744 23.061A10 10 0 0 1 47.024 22.94C46.94 22.923 46.854 22.908 46.77 22.888A10 10 0 0 1 44.854 22.233H43.665S40.241 22.398 38.224 25.502L35.214 30.168H28.988V16.806H39.71A9.9 9.9 0 0 1 39.036 13.806H25.986V33.168H33.278L29.194 39.501H25.657C20.837 39.501 20.837 45.884 25.657 45.884H30.422C30.296 46.444 30.18 47.002 30.074 47.557H14.157A1.5 1.5 0 1 0 14.157 50.557H29.606C29.412 52.108 29.297 53.613 29.297 55.011 29.297 60.755 30.009 67.907 35.559 72.275L35.967 72.596H47.5V84.387H38.234L37.789 86.812C35.674 86.931 33.984 88.674 33.984 90.819A4.033 4.033 0 0 0 38.013 94.848 4.034 4.034 0 0 0 42.042 90.819 4 4 0 0 0 40.657 87.803L40.733 87.387H46.833A4.02 4.02 0 0 0 44.888 90.819 4.033 4.033 0 0 0 48.917 94.848 4.035 4.035 0 0 0 52.947 90.819 4.02 4.02 0 0 0 51 87.387H57.293L57.344 87.663C56.405 88.401 55.789 89.534 55.789 90.818A4.033 4.033 0 0 0 59.818 94.847 4.034 4.034 0 0 0 63.847 90.818C63.847 88.741 62.261 87.047 60.24 86.832L59.793 84.387H50.5V72.596H61.524L61.924 72.294C67.795 67.87 68.549 60.733 68.549 55.011 68.549 53.613 68.434 52.108 68.24 50.557H85.842A1.5 1.5 0 0 0 85.844 47.557M38.015 91.848A1.03 1.03 0 0 1 38.015 89.79C38.581 89.79 39.044 90.252 39.044 90.819S38.582 91.848 38.015 91.848M59.82 89.789C60.386 89.789 60.849 90.251 60.849 90.818S60.386 91.847 59.82 91.847A1.03 1.03 0 0 1 59.82 89.789M48.919 91.848A1.03 1.03 0 0 1 48.919 89.79C49.485 89.79 49.948 90.252 49.948 90.819S49.486 91.848 48.919 91.848M60.506 69.596H37.023C33.716 66.759 32.298 62.355 32.298 55.011 32.298 49.273 34.16 41.749 37.041 35.844 38.982 31.868 43.105 25.198 48.926 25.198 54.745 25.198 58.868 31.868 60.807 35.844 63.69 41.749 65.551 49.272 65.551 55.011 65.551 62.317 64.037 66.72 60.506 69.596" data-fill-palette-color="accent"></path><circle fill="#99a28e" cx="49.015" cy="13.152" r="8.0" data-fill-palette-color="accent"></circle><g fill="#99a28e" data-fill-palette-color="accent"><path fill="#99a28e" d="M39.931 65.319A1.5 1.5 0 0 1 38.431 63.819V39.896A1.5 1.5 0 1 1 41.431 39.896V63.819A1.5 1.5 0 0 1 39.931 65.319" data-fill-palette-color="accent"></path><path fill="#99a28e" d="M49.015 65.319A1.5 1.5 0 0 1 47.515 63.819V39.896A1.5 1.5 0 1 1 50.515 39.896V63.819A1.5 1.5 0 0 1 49.015 65.319" data-fill-palette-color="accent"></path><path fill="#99a28e" d="M58.098 65.319A1.5 1.5 0 0 1 56.598 63.819V39.896A1.5 1.5 0 1 1 59.598 39.896V63.819A1.5 1.5 0 0 1 58.098 65.319" data-fill-palette-color="accent"></path></g><path fill="#99a28e" d="M53.494 33.19H44.73A1.5 1.5 0 1 1 44.73 30.19H53.494A1.5 1.5 0 1 1 53.494 33.19" data-fill-palette-color="accent"></path></g></svg></g></svg></g></svg></g><defs></defs></svg><rect width="395.52" height="67.22465049961487" fill="none" stroke="none" visibility="hidden"></rect></g></svg></g></svg>